<svg xmlns="http://www.w3.org/2000/svg" viewBox="0 0 280 400" width="100%" height="100%">
    <defs>
        <pattern id="ivy" x="0" y="0" width="60" height="60" patternUnits="userSpaceOnUse">
            <rect width="60" height="60" fill="#0A1F0D"/>
            <path d="M 0 60 Q 30 30 60 60 M 0 0 Q 30 30 60 0 M 30 0 L 30 60" stroke="#1B5E20" stroke-width="4" fill="none"/>
            <polygon points="15,15 22,8 18,20" fill="#76FF03"/>
            <polygon points="45,45 52,38 48,50" fill="#76FF03"/>
            <polygon points="30,30 38,22 33,35" fill="#76FF03"/>
            <path d="M 15 45 Q -5 35 15 20 Q 35 35 15 45 Z" fill="#2E7D32" opacity="0.8"/>
            <path d="M 45 15 Q 25 5 45 -10 Q 65 5 45 15 Z" fill="#2E7D32" opacity="0.8"/>
        </pattern>
    </defs>
    
    <rect x="0" y="0" width="280" height="400" rx="15" fill="url(#ivy)" />
    
    <rect x="0" y="0" width="280" height="400" rx="15" fill="none" stroke="#ffffff" stroke-width="12"/>
    <rect x="6" y="6" width="268" height="388" rx="9" fill="none" stroke="#212121" stroke-width="1" opacity="0.4"/>
</svg>