<svg xmlns="http://www.w3.org/2000/svg" viewBox="0 0 280 400" width="100%" height="100%">
    <defs>
        <pattern id="cyberpunk" x="0" y="0" width="80" height="80" patternUnits="userSpaceOnUse">
            <rect width="80" height="80" fill="#0A0216"/>
            <path d="M 10 0 L 10 30 L 40 30 L 40 80 M 70 80 L 70 50 L 50 50 L 50 0" stroke="#00E5FF" stroke-width="2" fill="none" />
            <path d="M 0 60 L 20 60 L 20 80 M 80 20 L 60 20 L 60 0" stroke="#F50057" stroke-width="1.5" fill="none" />
            <circle cx="40" cy="30" r="4" fill="#00E5FF" />
            <circle cx="50" cy="50" r="4" fill="#00E5FF" />
            <circle cx="20" cy="60" r="3" fill="#F50057" />
            <circle cx="60" cy="20" r="3" fill="#F50057" />
            <circle cx="10" cy="15" r="1.5" fill="#FFFFFF" opacity="0.5"/>
            <circle cx="70" cy="65" r="1.5" fill="#FFFFFF" opacity="0.5"/>
        </pattern>
    </defs>
    <rect x="0" y="0" width="280" height="400" rx="15" fill="url(#cyberpunk)" />
    <rect x="0" y="0" width="280" height="400" rx="15" fill="none" stroke="#ffffff" stroke-width="12"/>
    <rect x="6" y="6" width="268" height="388" rx="9" fill="none" stroke="#212121" stroke-width="1" opacity="0.4"/>
</svg>