<svg xmlns="http://www.w3.org/2000/svg" viewBox="0 0 280 400" width="100%" height="100%">
    <defs>
        <pattern id="artdeco" x="0" y="0" width="40" height="40" patternUnits="userSpaceOnUse">
            <rect width="40" height="40" fill="#111111" />
            <path d="M 0 40 A 20 20 0 0 1 40 40" stroke="#D4AF37" stroke-width="2" fill="none" />
            <path d="M -20 20 A 20 20 0 0 1 20 20" stroke="#D4AF37" stroke-width="2" fill="none" />
            <path d="M 20 20 A 20 20 0 0 1 60 20" stroke="#D4AF37" stroke-width="2" fill="none" />
            <path d="M 6 40 A 14 14 0 0 1 34 40" stroke="#D4AF37" stroke-width="1" fill="none" />
            <path d="M 26 20 A 14 14 0 0 1 54 20" stroke="#D4AF37" stroke-width="1" fill="none" />
            <path d="M -14 20 A 14 14 0 0 1 14 20" stroke="#D4AF37" stroke-width="1" fill="none" />
            <polygon points="20,37 23,40 20,43 17,40" fill="#D4AF37" />
            <polygon points="0,17 3,20 0,23 -3,20" fill="#D4AF37" />
            <polygon points="40,17 43,20 40,23 37,20" fill="#D4AF37" />
        </pattern>
    </defs>
    <rect x="0" y="0" width="280" height="400" rx="15" fill="url(#artdeco)" />
    <rect x="0" y="0" width="280" height="400" rx="15" fill="none" stroke="#ffffff" stroke-width="12"/>
    <rect x="6" y="6" width="268" height="388" rx="9" fill="none" stroke="#212121" stroke-width="1" opacity="0.4"/>
</svg>